<?xml version="1.0" encoding="UTF-8"?>
<svg xmlns="http://www.w3.org/2000/svg" xmlns:xlink="http://www.w3.org/1999/xlink" viewBox="0 0 30 30" width="30px" height="30px">
<g id="surface259811165">
<path style=" stroke:none;fill-rule:nonzero;fill:rgb(100%,100%,100%);fill-opacity:1;" d="M 9.601562 1.800781 C 5.300781 1.800781 1.800781 5.300781 1.800781 9.601562 L 1.800781 20.398438 C 1.800781 24.699219 5.300781 28.199219 9.601562 28.199219 L 20.398438 28.199219 C 24.699219 28.199219 28.199219 24.699219 28.199219 20.398438 L 28.199219 9.601562 C 28.199219 5.300781 24.699219 1.800781 20.398438 1.800781 Z M 9.601562 3 L 20.398438 3 C 24.050781 3 27 5.949219 27 9.601562 L 27 20.398438 C 27 24.050781 24.050781 27 20.398438 27 L 9.601562 27 C 5.949219 27 3 24.050781 3 20.398438 L 3 9.601562 C 3 5.949219 5.949219 3 9.601562 3 Z M 22.199219 6.601562 C 21.539062 6.601562 21 7.136719 21 7.800781 C 21 8.460938 21.539062 9 22.199219 9 C 22.863281 9 23.398438 8.460938 23.398438 7.800781 C 23.398438 7.136719 22.863281 6.601562 22.199219 6.601562 Z M 15 8.398438 C 11.363281 8.398438 8.398438 11.363281 8.398438 15 C 8.398438 18.636719 11.363281 21.601562 15 21.601562 C 18.636719 21.601562 21.601562 18.636719 21.601562 15 C 21.601562 11.363281 18.636719 8.398438 15 8.398438 Z M 15 9.601562 C 17.988281 9.601562 20.398438 12.011719 20.398438 15 C 20.398438 17.988281 17.988281 20.398438 15 20.398438 C 12.011719 20.398438 9.601562 17.988281 9.601562 15 C 9.601562 12.011719 12.011719 9.601562 15 9.601562 Z M 15 9.601562 "/>
</g>
</svg>
