<?xml version="1.0" encoding="UTF-8"?>
<svg xmlns="http://www.w3.org/2000/svg" xmlns:xlink="http://www.w3.org/1999/xlink" viewBox="0 0 30 30" width="30px" height="30px">
<g id="surface258984120">
<path style=" stroke:none;fill-rule:nonzero;fill:rgb(100%,100%,100%);fill-opacity:1;" d="M 30.039062 6.261719 C 28.929688 6.753906 27.742188 7.085938 26.492188 7.234375 C 27.765625 6.472656 28.746094 5.261719 29.207031 3.824219 C 28.015625 4.527344 26.691406 5.042969 25.285156 5.316406 C 24.160156 4.117188 22.558594 3.371094 20.785156 3.371094 C 17.375 3.371094 14.613281 6.132812 14.613281 9.539062 C 14.613281 10.023438 14.667969 10.492188 14.773438 10.945312 C 9.648438 10.6875 5.101562 8.230469 2.058594 4.496094 C 1.527344 5.410156 1.222656 6.472656 1.222656 7.601562 C 1.222656 9.742188 2.3125 11.628906 3.96875 12.738281 C 2.957031 12.707031 2.003906 12.425781 1.171875 11.964844 C 1.171875 11.992188 1.171875 12.015625 1.171875 12.042969 C 1.171875 15.03125 3.300781 17.523438 6.121094 18.09375 C 5.605469 18.234375 5.058594 18.308594 4.496094 18.308594 C 4.097656 18.308594 3.710938 18.273438 3.332031 18.195312 C 4.121094 20.644531 6.398438 22.433594 9.097656 22.484375 C 6.988281 24.136719 4.328125 25.121094 1.433594 25.121094 C 0.933594 25.121094 0.445312 25.09375 -0.0351562 25.035156 C 2.691406 26.789062 5.9375 27.808594 9.421875 27.808594 C 20.769531 27.808594 26.976562 18.40625 26.976562 10.257812 C 26.976562 9.988281 26.96875 9.71875 26.960938 9.457031 C 28.164062 8.585938 29.210938 7.5 30.039062 6.261719 Z M 30.039062 6.261719 "/>
</g>
</svg>
